<?xml version="1.0" encoding="utf-8"?>
<!-- Generator: Adobe Illustrator 16.0.0, SVG Export Plug-In . SVG Version: 6.00 Build 0)  -->
<!DOCTYPE svg PUBLIC "-//W3C//DTD SVG 1.1//EN" "http://www.w3.org/Graphics/SVG/1.1/DTD/svg11.dtd">
<svg version="1.1" id="Layer_1" xmlns="http://www.w3.org/2000/svg" xmlns:xlink="http://www.w3.org/1999/xlink" x="0px" y="0px"
	 width="285.5px" height="80px" viewBox="0 0 285.5 80" enable-background="new 0 0 285.5 80" xml:space="preserve">
<g id="Logo_3_">
	<g>
		<polygon fill="#1825AA" points="73.611,43.988 73.611,51.08 75.162,51.08 75.162,48.808 75.714,48.308 75.714,48.308 
			78.486,51.08 80.702,51.08 76.876,47.254 76.876,47.254 80.481,43.988 78.486,43.988 75.162,47 75.162,43.988 		"/>
		<path fill="#1825AA" d="M60.474,49.528l0.728,1.552h1.772l-3.103-6.619l-0.222-0.473h-1.33l-0.221,0.473l-3.103,6.619h1.773
			l0.728-1.552H60.474z M58.985,46.353l0.866,1.847H58.12L58.985,46.353z"/>
		<path fill="#1825AA" d="M51.562,43.988h-4.543v7.092h4.986c1.162,0,2.105-0.942,2.105-2.104c0-0.707-0.349-1.29-0.883-1.64
			c0.274-0.332,0.439-0.759,0.439-1.242C53.667,44.931,52.725,43.988,51.562,43.988z M48.57,45.318h2.659
			c0.428,0,0.775,0.347,0.775,0.775s-0.347,0.776-0.775,0.776l0,0H48.57V45.318z M51.672,49.75H48.57v-1.551h3.102h0
			c0.429,0,0.775,0.348,0.775,0.776C52.448,49.403,52.101,49.75,51.672,49.75z"/>
		<polygon fill="#1825AA" points="70.065,51.08 71.617,51.08 71.617,43.988 70.065,43.988 70.065,48.864 66.077,43.988 
			64.525,43.988 64.525,51.08 66.077,51.08 66.077,46.205 		"/>
		<path fill="#EB0029" d="M64.393,31.491H46.277c-0.286,1.16-0.515,2.343-0.683,3.545h15.253L64.393,31.491z"/>
		<path fill="#EB0029" d="M101.495,11.281H59.91c-1.481,1.074-2.877,2.259-4.174,3.545h49.932
			C104.372,13.54,102.976,12.355,101.495,11.281z"/>
		<path fill="#EB0029" d="M116.114,38.227H45.29c-0.029,0.587-0.044,1.178-0.044,1.773c0,0.594,0.015,1.186,0.044,1.772h53.14v5.319
			L80.702,64.819L69.179,53.296H47.826c5.26,12.993,17.997,22.16,32.876,22.16c19.582,0,35.457-15.875,35.457-35.456
			C116.158,39.405,116.143,38.814,116.114,38.227z"/>
		<path fill="#EB0029" d="M80.702,4.544c-5.546,0-10.795,1.275-15.471,3.545h30.942C91.498,5.819,86.249,4.544,80.702,4.544z"/>
		<path fill="#EB0029" d="M93.821,28.299h20.358c-0.424-1.213-0.911-2.397-1.459-3.546H90.275L93.821,28.299z"/>
		<path fill="#EB0029" d="M87.084,21.563h23.908c-0.752-1.234-1.578-2.417-2.472-3.546H83.539L87.084,21.563z"/>
		<path fill="#EB0029" d="M77.866,18.017H52.883c-0.894,1.129-1.72,2.312-2.472,3.546H74.32L77.866,18.017z"/>
		<path fill="#EB0029" d="M71.129,24.753H48.684c-0.548,1.149-1.036,2.333-1.459,3.546h20.358L71.129,24.753z"/>
	</g>
	<g>
		<path fill="#1825AA" d="M184.854,45.318c-7.833,0-14.183-6.35-14.183-14.182c0-7.833,6.35-14.183,14.183-14.183
			c4.388,0,8.31,1.994,10.911,5.124c2.343-1.811,4.828-3.445,7.438-4.882c-4.21-5.532-10.86-9.106-18.349-9.106
			c-12.729,0-23.047,10.318-23.047,23.047c0,12.727,10.318,23.045,23.047,23.045c7.489,0,14.14-3.573,18.351-9.106
			c-2.61-1.437-5.092-3.074-7.437-4.885C193.167,43.323,189.244,45.318,184.854,45.318z"/>
		<path fill="#1825AA" d="M234.895,29.332c1.953-2.161,3.143-5.025,3.143-8.168c0-6.731-5.456-12.188-12.188-12.188h-19.595
			c0.49,1.386,0.76,2.877,0.76,4.432v39.888c0,0,15.514,0,19.944,0c7.343,0,13.296-5.953,13.296-13.296
			C240.254,35.632,238.147,31.756,234.895,29.332z M215.878,17.396h8.42c2.448,0,4.432,1.985,4.432,4.432
			c0,2.448-1.983,4.433-4.432,4.433h-8.42V17.396z M225.628,44.875h-9.75V34.238h9.75c2.938,0,5.318,2.381,5.318,5.318
			C230.947,42.493,228.566,44.875,225.628,44.875z"/>
		<path fill="#1825AA" d="M148.178,28.345c-2.132-0.62-6.442-1.516-9.669-2.346c-1.796-0.462-4.234-1.732-4.234-4.392
			c0-1.933,1.995-5.318,7.978-5.207c4.868,0.09,7.528,3.207,7.755,5.865c2.739-1.143,5.584-2.078,8.519-2.791
			c-1.903-6.444-7.726-11.384-16.273-11.384c-4.597,0-8.126,1.144-11.068,3.147c-3.464,2.359-5.774,6.235-5.774,10.34
			c0,6.235,4.258,9.211,6.669,10.629c2.834,1.668,8.959,2.939,11.035,3.459c3.477,0.872,5.76,1.278,6.895,2.34
			c0.65,0.609,1.107,1.327,1.107,2.659c0,2.742-2.961,5.243-8.199,5.243c-6.582,0-8.914-3.147-9.258-5.826
			c-2.777,1.146-5.662,2.085-8.637,2.79c0.921,3.085,3.043,5.951,5.928,7.987c2.889,2.039,6.728,3.323,11.967,3.323
			c10.024,0,17.062-6.204,17.062-13.96C159.979,31.355,151.115,29.197,148.178,28.345z"/>
	</g>
	<g>
		<polygon fill="#1825AA" points="144.745,60.608 145.631,61.274 147.182,61.274 145.409,59.722 144.08,59.722 142.307,61.274 
			143.857,61.274 		"/>
		<polygon fill="#1825AA" points="229.396,61.274 227.844,59.722 225.849,59.722 227.844,61.274 		"/>
		<polygon fill="#1825AA" points="207.457,61.274 205.907,59.722 203.912,59.722 205.907,61.274 		"/>
		<polygon fill="#1825AA" points="173.331,61.274 171.779,59.722 169.785,59.722 171.779,61.274 		"/>
		<path fill="#1825AA" d="M143.636,62.159l-2.969,8.865h1.95l0.686-2.217h2.883l0.686,2.217h1.95l-2.97-8.865H143.636z
			 M143.784,67.257l0.961-3.103l0.961,3.103H143.784z"/>
		<path fill="#1825AA" d="M171.115,62.159l-2.97,8.865h1.95l0.687-2.217h2.882l0.687,2.217h1.95l-2.97-8.865H171.115z
			 M171.262,67.257l0.96-3.103l0.961,3.103H171.262z"/>
		<path fill="#1825AA" d="M205.241,62.159l-2.969,8.865h1.95l0.686-2.217h2.882l0.687,2.217h1.951l-2.971-8.865H205.241z
			 M205.388,67.257l0.96-3.103l0.962,3.103H205.388z"/>
		<polygon fill="#1825AA" points="130.34,67.7 126.573,62.159 125.022,62.159 125.022,71.024 126.795,71.024 126.795,65.483 
			130.562,71.024 132.113,71.024 132.113,62.159 130.34,62.159 		"/>
		<polygon fill="#1825AA" points="154.717,67.7 150.95,62.159 149.398,62.159 149.398,71.024 151.17,71.024 151.17,65.483 
			154.938,71.024 156.489,71.024 156.489,62.159 154.717,62.159 		"/>
		<polygon fill="#1825AA" points="182.192,67.7 178.424,62.159 176.874,62.159 176.874,71.024 178.646,71.024 178.646,65.483 
			182.414,71.024 183.964,71.024 183.964,62.159 182.192,62.159 		"/>
		<polygon fill="#1825AA" points="238.481,62.159 238.481,67.7 234.714,62.159 233.162,62.159 233.162,71.024 234.936,71.024 
			234.936,65.483 238.703,71.024 240.254,71.024 240.254,62.159 		"/>
		<path fill="#1825AA" d="M136.988,63.667c1.108,0,1.551,0.487,1.685,1.353h1.861c0-1.441-1.152-3.038-3.546-3.038
			c-2.659,0-3.767,1.73-3.767,4.167v0.887c0,2.438,1.108,4.167,3.767,4.167s3.546-1.803,3.546-3.232v-1.821h-3.546V67.7h1.773v0.31
			c0,0.887-0.62,1.508-1.773,1.508c-1.329,0-1.869-0.932-1.869-2.482v-0.887C135.119,64.376,135.748,63.667,136.988,63.667z"/>
		<path fill="#1825AA" d="M188.843,63.667c1.107,0,1.551,0.487,1.684,1.353h1.861c0-1.441-1.152-3.038-3.545-3.038
			c-2.66,0-3.768,1.73-3.768,4.167v0.887c0,2.438,1.107,4.167,3.768,4.167c2.659,0,3.545-1.803,3.545-3.232v-1.821h-3.545V67.7
			h1.771v0.31c0,0.887-0.62,1.508-1.771,1.508c-1.33,0-1.87-0.932-1.87-2.482v-0.887C186.973,64.376,187.602,63.667,188.843,63.667z
			"/>
		<path fill="#1825AA" d="M219.867,63.667c1.107,0,1.551,0.487,1.684,1.353h1.861c0-1.441-1.151-3.038-3.545-3.038
			c-2.658,0-3.768,1.73-3.768,4.167v0.887c0,2.438,1.109,4.167,3.768,4.167c2.659,0,3.545-1.803,3.545-3.232v-1.821h-3.545V67.7
			h1.773v0.31c0,0.887-0.621,1.508-1.773,1.508c-1.33,0-1.869-0.932-1.869-2.482v-0.887
			C217.998,64.376,218.625,63.667,219.867,63.667z"/>
		<polygon fill="#1825AA" points="165.796,65.706 162.25,65.706 162.25,62.159 160.478,62.159 160.478,71.024 162.25,71.024 
			162.25,67.257 165.796,67.257 165.796,71.024 167.569,71.024 167.569,62.159 165.796,62.159 		"/>
		<path fill="#1825AA" d="M199.837,65.857l-1.333-0.297c-0.798-0.165-1.241-0.475-1.241-1.007c0-0.71,0.621-1.064,1.552-1.064
			c1.019,0,1.508,0.488,1.508,1.109h1.771c0-1.553-1.285-2.617-3.33-2.617c-1.943,0-3.362,0.887-3.362,2.66
			c0,1.508,1.043,2.249,2.291,2.516l1.343,0.308c0.896,0.203,1.33,0.458,1.33,1.097c0,0.688-0.575,1.133-1.684,1.133
			c-1.111,0-1.684-0.443-1.684-1.108h-1.817c0,1.197,0.841,2.616,3.501,2.616c2.216,0,3.546-1.064,3.546-2.838
			C202.228,66.77,201.164,66.148,199.837,65.857z"/>
		<rect x="211.002" y="62.159" fill="#1825AA" width="1.773" height="8.865"/>
		<path fill="#1825AA" d="M228.288,61.981c-2.438,0-3.768,1.508-3.768,4.167v0.887c0,2.659,1.329,4.167,3.758,4.167
			c2.446,0,3.776-1.508,3.776-4.167v-0.887C232.054,63.489,230.724,61.981,228.288,61.981z M230.194,67.035
			c0,1.772-0.797,2.482-1.909,2.482c-1.106,0-1.903-0.71-1.903-2.482v-0.887c0-1.772,0.799-2.481,1.906-2.481
			c1.112,0,1.906,0.709,1.906,2.481V67.035z"/>
	</g>
</g>
</svg>
